<svg version="1" xmlns="http://www.w3.org/2000/svg" width="666.667" height="666.667" viewBox="0 0 500.000000 500.000000"><path d="M236.8 48.3c-4.8 2.3-10.2 4.8-12 5.6-1.8.8-7.1 3.2-11.8 5.4-4.7 2.1-13 5.9-18.5 8.4-5.5 2.4-10.8 4.9-11.8 5.4s-9.8 4.6-19.5 9.1c-9.7 4.4-21.1 9.6-25.2 11.5-4.1 1.9-14.5 6.7-23 10.5-8.5 3.9-20 9.2-25.5 11.7-5.5 2.6-22.3 10.3-37.3 17.2-15 6.8-28.5 13.4-30 14.7-2.3 2.1-2.7 3.1-2.7 8.1 0 8.4 0 8.3 27 20.6 13.4 6.1 41.5 19 48.5 22.2 4.1 2 9.8 4.6 12.5 5.8 5.7 2.6 14.1 6.4 30.5 14 6.3 2.9 13.8 6.3 16.5 7.5 2.8 1.2 9.2 4.2 14.3 6.6 5.1 2.4 9.5 4.4 9.7 4.4.2 0 5 2.2 10.7 4.9 29.7 14.1 57.1 26.1 60 26.2 2.2.1 7.4-1.7 15.3-5.3 6.6-3.1 14.5-6.7 17.5-8.1 3-1.3 8.4-3.8 12-5.5 14.8-6.9 37.2-17.2 37.5-17.2.2 0 5.6-2.5 12-5.5 6.3-3 11.7-5.5 11.9-5.5.2 0 5.7-2.5 12.2-5.5 6.6-3.1 12.8-6 13.9-6.5 1.1-.5 5.8-2.7 10.5-4.8 4.7-2.2 13.2-6.1 19-8.7 5.8-2.6 14.3-6.5 19-8.7 10-4.8 17-7.8 17.1-7.5.1.1.2 27 .3 59.7l.1 59.5-8.3 13.8c-4.6 7.6-8.1 14.4-7.9 15 1.3 3.2 20.9 34.2 22 34.9.7.4 1.8.4 2.4 0 .6-.4 5.9-8.5 11.7-18 10.3-16.6 10.6-17.4 9.3-20-.7-1.5-4.5-7.9-8.4-14.2l-7-11.5.1-63 .1-63 7.7-3.7c8.3-4 10.8-7 10.8-12.8 0-5.8-2.8-8.8-12.8-13.6-5.1-2.4-9.5-4.4-9.7-4.4-.2 0-4.5-2-9.7-4.4-10.4-4.9-29-13.5-44.8-20.6-5.8-2.6-13.9-6.3-18-8.3-4.1-1.9-15.4-7.1-25-11.5-27.2-12.4-40.9-18.7-48-22-51.6-23.9-59.3-27.2-63.2-27.1-1.8 0-7.2 1.9-12 4.2zm21.7 94.6c4.2 1.9 9.4 7.2 9.6 9.7.1.8.1 2.3.1 3.4 0 4.1-.3 4.9-2.9 8.1-10 11.8-32.6 7.4-34.6-6.7-1.6-11.6 15.1-20.3 27.8-14.5z"/><path d="M99.7 215.7c-3.5 1.4-4.3 2.6-10.2 14.7-7.8 16-13.7 33.6-15.1 45.1-.2 1.6-.6 3.9-.8 5-1.1 4.5-1.9 15.6-1.9 25.5.1 27.8 6.5 53.4 19.6 78.5l3.6 6.8-3 5.6c-11 21.1-23.5 37.8-39.9 53.6-14.4 13.8-14 13.3-14 17.9 0 4.6 2.3 7.7 7 9.4 3.5 1.2 24.9.5 40.5-1.4 22.5-2.6 54-10.7 71.9-18.4l4.6-1.9 7.8 3.8c37.2 18.5 82.5 23.2 123.7 13 25.9-6.5 52.2-20 73.1-37.4 16.3-13.6 33-34.8 42.9-54.6 11.5-22.7 18.7-54.1 17.9-77.9-.2-6.8-1.5-23.4-1.9-24-.2-.3-.6-2.3-.9-4.4-2.8-17.7-15.3-49.6-22.2-56.6-3.9-4-8.9-3.3-21.9 2.9-14.4 7-26.4 12.6-35 16.6-3.8 1.8-11 5.2-16 7.5-23.5 11.1-31.8 15-32 15-.2 0-6.1 2.8-13.1 6.1-25.4 12.1-30.9 14.6-33.7 15.3-3 .7-2.4 1-27.7-11.2-7.4-3.5-18-8.6-23.5-11.2-28.3-13.4-52-24.7-64.3-30.6-33-15.9-30.1-14.8-35.5-12.7zm87.9 108.1c8.4 4.4 13.5 12.2 13.8 21.6 1.2 28.5-39 37.2-50.5 11-9.8-22 14.9-43.8 36.7-32.6zm72.6-.9c3.9 1.5 10.6 7.9 12.8 12.1 3.1 6.1 3.5 13.6 1 20.2-2.5 6.7-6.7 11.2-13.5 14.4-17 8.1-37.6-4.5-37.6-23 0-18.6 19.1-30.8 37.3-23.7zm75.5.7c8.8 4.2 13.8 12.6 13.8 22.9-.1 11-5 18.5-15.2 23.2-18.1 8.4-38.6-5.5-37.1-25 1.6-18.7 21-29.4 38.5-21.1z"/></svg>