<svg version="1" xmlns="http://www.w3.org/2000/svg" width="668" height="668" viewBox="0 0 501.000000 501.000000"><path d="M245 45c-1.6 1-22.9 11-23.5 11-.3 0-6.1 2.7-13 6s-12.7 6-13 6c-.2 0-4.3 1.8-9.2 4.1-4.8 2.3-13.1 6-18.3 8.4-5.2 2.4-13.3 6.1-18 8.3-4.7 2.2-11.2 5.2-14.5 6.7-14.5 6.6-18.4 8.4-24 11-8.6 3.9-16.3 7.5-29.5 13.5-6.3 2.8-14.2 6.4-17.5 8-3.3 1.5-7.6 3.5-9.5 4.3-6.2 2.7-27.4 12.7-29 13.5-.8.5-2.6 2.4-3.8 4.3-1.8 2.6-2.3 4.3-1.9 7.2.7 5.2 3.8 8.4 11.7 12 11.8 5.3 53.4 24.4 59.5 27.2 3.3 1.5 11.2 5.1 17.5 8 6.3 2.9 15.1 6.9 19.5 9 4.4 2 10.3 4.7 13 6 2.8 1.2 8.2 3.7 12 5.5 3.9 1.8 8.8 4.1 11 5 2.2 1 7.4 3.3 11.5 5.3 4.1 1.9 12.5 5.7 18.5 8.5 6.1 2.8 14.4 6.6 18.6 8.5 21.1 9.8 30.8 14.1 34.4 15.2 4.7 1.4 6 1 20-5.5 5-2.3 22.3-10.3 38.5-17.7 30.1-13.8 34.9-16 50.3-23.2 4.9-2.2 9.1-4.1 9.2-4.1.2 0 4.1-1.8 8.7-3.9 10.3-4.9 71.8-33.1 73.5-33.8 1-.4 1.2 11.9 1 59.8l-.2 60.4-8.2 13.4-8.1 13.4 1.9 3.6c1.1 2 5.4 9 9.5 15.6s8 13 8.6 14.3c.8 1.6 1.9 2.2 3.6 2 1.9-.2 4.3-3.4 11.7-15.7 5.2-8.5 9.9-15.9 10.4-16.4 2-2 1.1-4.3-7-17.5l-8-13.2v-58.7V177l.1-4.6 7.5-3.7c8.3-4.1 10.8-7 10.8-12.7 0-7.9.3-7.7-39.8-26-3.8-1.8-25.4-11.7-48-22-22.5-10.3-44.1-20.2-48-22-3.8-1.8-17.6-8-30.5-14-12.9-5.9-26-11.9-29-13.3-3-1.4-11.1-5.1-18-8.2-12.5-5.8-19.9-7.6-23-5.5zm14.5 97.9c11 5 13.6 15 5.9 22.5-13.7 13.3-40.2.6-31.9-15.4 4-7.7 16.9-11.3 26-7.1z"/><path d="M102.7 215.1c-4 1.1-5.2 2.3-9.1 9.2-6.6 11.9-12.9 28.5-16.1 42.5-3.6 15.3-4.3 23.1-4 41.2.4 19.1.3 17.3 2.1 27 3.4 18.1 7.8 31.1 15.8 47l4.5 8.9-2.4 5.3c-1.4 2.9-3.1 6.2-3.7 7.3-.7 1.1-3 4.9-5.2 8.5-8.7 14.5-24.6 33.2-38.2 45.1-5.5 4.9-7.4 7.8-7.4 11.5 0 4.5 4.7 9.4 9.2 9.5 9.4.4 35.2-.6 38-1.5.7-.3 3.8-.7 6.8-1.1 14.8-1.6 42.3-8.6 60-15.2 5.2-2 10-3.6 10.5-3.6.6 0 4.8 1.8 9.5 4 20.6 9.6 38 14.4 61 16.9 6.3.6 27.4.7 33.5 0 15.9-1.8 33.3-5.7 46.2-10.5 8.3-3.1 27.5-12.2 30.3-14.5.8-.6 2.6-1.7 4-2.4 3.1-1.6 15.2-10.5 20.5-15.2 26.5-23.2 45.9-53.7 54.4-85.7 1.2-4.6 2.4-9.5 2.6-11 .2-1.6.6-4.4 1-6.3 2.1-11.3 2.7-37 1.1-47.5-3.3-21.3-7.9-36.4-16.7-54.3-6.2-12.5-8.6-15.2-13.9-15.2-1.2 0-11.7 4.5-23.3 9.9-37.4 17.5-49.2 23-64.2 30.1-4.9 2.3-11.7 5.5-15 7-3.3 1.6-11.8 5.6-19 9-19.9 9.4-24.4 11.2-26.8 10.4-2.5-.8-9.9-4.2-30.2-13.9-14.4-6.9-26.5-12.7-44-21-12.2-5.8-27.5-13.1-45.5-21.7-22.6-10.9-22.4-10.8-26.3-9.7zm79.8 106.4c6.8 1.2 13.3 5.9 17.4 12.8 2.9 4.7 3.8 13.9 2.1 19.3-4.9 15-22.3 22.7-36.5 16-22.6-10.5-19.6-41.7 4.6-48 3-.7 6.1-1.2 6.9-1.1.8.1 3.3.6 5.5 1zm81.9 2.9c7.8 4.6 12.6 12.9 12.6 22 0 23.3-29.4 34.5-45.7 17.4-8.1-8.4-9.4-21.1-3.2-30.7 7.8-12 24-15.9 36.3-8.7zm75.1.8c7.4 4.8 11.6 12.4 11.6 21.1 0 19.2-21.1 31.8-38.6 23-12-6-17.4-21.1-11.8-33.3 6.5-14.4 25.1-19.6 38.8-10.8z"/></svg>