<?xml version="1.0" standalone="no"?>
<!DOCTYPE svg PUBLIC "-//W3C//DTD SVG 20010904//EN"
 "http://www.w3.org/TR/2001/REC-SVG-20010904/DTD/svg10.dtd">
<svg version="1.0" xmlns="http://www.w3.org/2000/svg"
 width="500.000000pt" height="500.000000pt" viewBox="0 0 500.000000 500.000000"
 preserveAspectRatio="xMidYMid meet">
<metadata>
Created by potrace 1.11, written by Peter Selinger 2001-2013
</metadata>
<g transform="translate(0.000000,500.000000) scale(0.100000,-0.100000)"
fill="#000000" stroke="none">
<path d="M2443 4829 c-23 -4 -65 -19 -95 -32 -29 -14 -84 -39 -123 -57 -61
-28 -181 -83 -345 -158 -25 -11 -153 -68 -285 -127 -132 -59 -265 -118 -295
-132 -30 -14 -190 -86 -355 -160 -377 -170 -397 -179 -470 -212 -33 -15 -85
-39 -115 -52 -213 -94 -315 -146 -334 -172 -28 -37 -28 -112 -1 -149 24 -32
55 -48 430 -216 160 -71 322 -144 360 -162 39 -18 129 -58 200 -90 72 -32 159
-71 195 -88 99 -45 436 -197 830 -373 195 -88 367 -166 381 -174 15 -8 47 -16
71 -16 44 -2 91 17 468 189 30 14 57 26 60 27 3 1 21 8 40 17 136 61 781 352
895 403 28 13 115 52 195 88 80 36 182 82 225 102 127 58 140 64 148 64 4 0
29 12 56 25 l49 25 4 -27 c2 -15 3 -297 3 -627 l-1 -600 -23 -42 c-34 -63 -48
-71 -48 -26 -1 208 -69 483 -174 701 -91 189 -147 250 -218 237 -35 -6 -95
-29 -196 -75 -38 -17 -88 -40 -110 -50 -45 -20 -132 -61 -410 -193 -163 -77
-399 -181 -818 -362 -127 -54 -153 -53 -307 19 -63 30 -173 80 -245 111 -71
32 -172 77 -223 101 -52 24 -95 44 -97 44 -2 0 -50 22 -107 49 -57 27 -128 60
-158 74 -30 14 -89 41 -130 60 -248 116 -489 220 -517 223 -67 8 -107 -23
-173 -136 -101 -172 -185 -391 -216 -557 -12 -65 -14 -83 -21 -138 -9 -80 -9
-263 0 -349 22 -206 103 -448 212 -634 19 -33 35 -71 35 -84 0 -34 -88 -178
-185 -303 -113 -146 -225 -260 -367 -376 -100 -81 -116 -112 -95 -174 22 -64
63 -78 223 -77 261 3 557 38 764 92 19 5 46 11 60 14 40 8 228 63 309 91 93
31 105 31 177 -1 188 -83 476 -161 664 -179 98 -10 232 -19 285 -19 62 0 236
12 270 18 11 2 43 7 70 11 67 9 266 59 357 89 521 170 956 540 1173 1000 62
130 112 271 131 370 4 20 12 32 17 25 2 -2 20 -33 42 -69 106 -178 123 -193
165 -148 35 38 220 344 220 365 0 11 -32 69 -70 130 -39 61 -76 126 -84 145
-11 27 -13 153 -12 678 1 738 -7 679 96 723 67 29 92 60 96 119 3 43 -12 82
-42 110 -11 9 -116 60 -234 113 -118 53 -240 108 -270 122 -30 14 -161 72
-290 130 -129 58 -260 116 -290 130 -30 14 -73 33 -95 43 -22 10 -65 29 -95
43 -30 14 -71 31 -90 39 -19 8 -249 112 -510 231 -261 118 -486 218 -500 221
-52 11 -96 13 -137 5z m184 -982 c34 -9 86 -37 115 -64 42 -40 23 -94 -47
-131 -70 -36 -207 -50 -299 -30 -93 20 -169 75 -161 116 2 9 4 20 4 24 3 27
86 74 154 87 43 9 194 7 234 -2z m-885 -2101 c158 -76 197 -297 75 -424 -122
-128 -337 -96 -415 61 -68 136 -15 293 121 362 44 22 62 26 117 23 36 -2 82
-12 102 -22z m866 0 c140 -71 192 -228 122 -366 -65 -127 -238 -177 -358 -103
-92 57 -139 148 -129 254 8 88 55 160 138 211 56 35 162 37 227 4z m856 -10
c90 -53 141 -151 131 -252 -7 -72 -29 -118 -78 -167 -144 -144 -386 -73 -432
127 -33 144 36 263 185 320 8 3 45 4 82 2 50 -2 78 -10 112 -30z"/>
</g>
</svg>
